inDegrees=yes
name=ik_lifting_orientations
DataType=double
version=3
OpenSimVersion=4.5-2024-01-10-34fd6af
endheader
time	pelvis_tilt	pelvis_list	pelvis_rotation	pelvis_tx	pelvis_ty	pelvis_tz	hip_flexion_r	hip_adduction_r	hip_rotation_r	knee_angle_r	knee_angle_r_beta	ankle_angle_r	subtalar_angle_r	mtp_angle_r	hip_flexion_l	hip_adduction_l	hip_rotation_l	knee_angle_l	knee_angle_l_beta	ankle_angle_l	subtalar_angle_l	mtp_angle_l	lumbar_extension	lumbar_bending	lumbar_rotation	arm_flex_r	arm_add_r	arm_rot_r	elbow_flex_r	pro_sup_r	wrist_flex_r	wrist_dev_r	arm_flex_l	arm_add_l	arm_rot_l	elbow_flex_l	pro_sup_l	wrist_flex_l	wrist_dev_l
0.02	0.02642390034757214	0.007571979311641875	2.433108056973785	0	0.9399999999999999	0	40.95963326238672	-11.66572400295582	0	59.88077429008516	1.045116670005556	-5.740882175508792	0	0	40.95963326238672	-11.66572400295582	0	59.88077429008516	1.045116670005556	-5.740882175508792	0	0	-0.05713172315307598	-0.01430850866157833	-0.00166323508105171	-0.2571567971699419	-0.05888656103670156	-0.004872377888922622	0.6006716104077795	45.46015095615528	0	0	0	-9.849801109534011	0	75.3613037696399	45.46015095615528	0	0
0.03	-0.000770925675219669	0.00202172652769941	2.432153350140136	0	0.9399999999999999	0	40.97946540987093	-11.63952959265712	0	59.88123590281463	1.045124726667555	-5.726142133375727	0	0	40.97946540987093	-11.63952959265712	0	59.88123590281463	1.045124726667555	-5.726142133375727	0	0	0.006124366145545755	-0.0001907875918405431	0.003527713048797338	-0.2884144952556955	-0.06564759364670836	-0.01055525988656536	0.5831387906824295	45.45430468551739	0	0	0	-9.863020592294571	0	75.35953559522027	45.45430468551739	0	0
0.04	0.0007807160320661118	0.0001191985657164833	2.434232611669169	0	0.9399999999999999	0	41.07075862920071	-11.52385441252354	0	59.8833646425783	1.045161880185349	-5.662377353213708	0	0	41.07075862920071	-11.52385441252354	0	59.8833646425783	1.045161880185349	-5.662377353213708	0	0	-0.002250346628310289	-0.0003082197455106821	-0.0003198344349088168	-0.2363796864333981	-0.05581835684233234	-0.005669968938650765	0.4880647010199468	45.42812199290268	0	0	0	-9.924073757597368	0	75.35139540607591	45.42812199290268	0	0
0.05	-0.0007603403342414948	-0.001658527682767458	2.422971591984016	0	0.9399999999999999	0	41.27061021872863	-11.3082088939627	0	59.88810045188808	1.045244535650551	-5.550220343344835	0	0	41.27061021872863	-11.3082088939627	0	59.88810045188808	1.045244535650551	-5.550220343344835	0	0	0.00183632152031284	0.0005127094147228029	0.001332845308296225	-0.2389680627139589	-0.05882264615706384	0.009119050244165585	0.490036870560653	45.3771164391442	0	0	0	-10.06264067457035	0	75.33356610035044	45.3771164391442	0	0
0.06	0.003785343474169078	0.0007669343579976098	2.434197620081559	0	0.9399999999999999	0	41.39177050831417	-11.18153576412885	0	59.89098330062676	1.045294850852878	-5.484841869053253	0	0	41.39177050831417	-11.18153576412885	0	59.89098330062676	1.045294850852878	-5.484841869053253	0	0	-0.007402977730638212	-0.001187525886558072	0.000100051796952535	-0.2341611925584392	-0.05489680132936898	-0.00617357775045608	0.4892785488495401	45.34694506352375	0	0	0	-10.14743322461904	0	75.32275593057466	45.34694506352375	0	0
0.07000000000000001	0.01248350520109476	0.003882140710638249	2.431694085392507	0	0.9399999999999999	0	41.6722436242575	-10.91570581351209	0	59.89772386844469	1.045412495954755	-5.35244626028107	0	0	41.6722436242575	-10.91570581351209	0	59.89772386844469	1.045412495954755	-5.35244626028107	0	0	-0.02528977566344436	-0.005550940061064828	-0.00215760006587046	-0.2477756805965044	-0.05929877357553223	-0.00617468392942679	0.5381781647222971	45.28191981562301	0	0	0	-10.34812963419495	0	75.29772500427431	45.28191981562301	0	0
0.08	0.01220466139205628	-0.001711117512682409	2.442959307280271	0	0.9399999999999999	0	41.73007337267853	-10.8672662407536	0	59.89913164282234	1.04543706625277	-5.329378834425206	0	0	41.73007337267853	-10.8672662407536	0	59.89913164282234	1.04543706625277	-5.329378834425206	0	0	-0.004682125179431475	-0.0003787751307814675	0.001309205144539063	-0.4434703439856061	-0.09943541822861701	-0.02329214961095219	0.8913640660063169	45.26966746038622	0	0	0	-10.39068400872127	0	75.29256245773297	45.26966746038622	0	0
0.1	-0.01424545924451952	-0.008175493722295077	2.439673912007482	0	0.9399999999999999	0	41.8018076691767	-10.80785619556329	0	59.90088106725635	1.045467599469158	-5.30124050121713	0	0	41.8018076691767	-10.80785619556329	0	59.90088106725635	1.045467599469158	-5.30124050121713	0	0	0.0288282358381979	0.004022642192485958	0.0006497379435293594	-0.3014166256272964	-0.06586625237117744	-0.01133033308502879	0.5885233118613428	45.25458681545374	0	0	0	-10.44357050591273	0	75.28615855770178	45.25458681545374	0	0
0.11	-0.0006779414911117998	0.0009770112175814364	2.433676914538926	0	0.9399999999999999	0	41.92558770317221	-10.71088406932286	0	59.90391285697343	1.045520514181949	-5.256277587499066	0	0	41.92558770317221	-10.71088406932286	0	59.90391285697343	1.045520514181949	-5.256277587499066	0	0	0.001011376769312967	-0.001338631076007001	0.00102467925825132	-0.2375560818448585	-0.05415978042577075	-0.006132204946026746	0.4877055768288808	45.22958760407649	0	0	0	-10.5359202248306	0	75.27510708916716	45.22958760407649	0	0
0.13	0.0002648248506642244	0.0009360981257363659	2.436323959069621	0	0.9399999999999999	0	42.06832914592103	-10.61980835902454	0	59.90748077490203	1.045582786097244	-5.217116637404838	0	0	42.06832914592103	-10.61980835902454	0	59.90748077490203	1.045582786097244	-5.217116637404838	0	0	-0.001069062608576827	-0.0007100007885394089	-0.0004666366489742106	-0.2404857387918493	-0.05643056786916051	-0.009356757630409517	0.4955246916600803	45.20475707312474	0	0	0	-10.6473973950971	0	75.26235731349365	45.20475707312474	0	0
0.14	0.004845632355494912	0.006058498819320604	2.432817049280974	0	0.9399999999999999	0	42.27279863318513	-10.49622575625954	0	59.91262471923852	1.045672564862455	-5.164800018876784	0	0	42.27279863318513	-10.49622575625954	0	59.91262471923852	1.045672564862455	-5.164800018876784	0	0	-0.01180553736672765	-0.003986838200732363	-0.001010386307064331	-0.4383491999297516	-0.1092699764118555	-0.009422550883364659	0.9169058861509709	45.17062490913735	0	0	0	-10.80943297700896	0	75.24409211406365	45.17062490913735	0	0
0.16	-0.01359634845260431	0.0002154201897362996	2.43041516047914	0	0.9399999999999999	0	42.34880316751492	-10.45310086822889	0	59.91455542393044	1.045706262016213	-5.146984738072224	0	0	42.34880316751492	-10.45310086822889	0	59.91455542393044	1.045706262016213	-5.146984738072224	0	0	0.01176608314950323	0.006403376090608752	0.01014542266329494	-0.4342533973547064	-0.1100650901440388	-0.009668211508734474	0.9037046567625552	45.15849949198729	0	0	0	-10.87037817411623	0	75.23730210626432	45.15849949198729	0	0
0.17	-0.001451805016147449	-0.0002875328018899748	2.43327893026917	0	0.9399999999999999	0	42.40373989505411	-10.42321220351954	0	59.91595304894474	1.045730655174421	-5.134809059830628	0	0	42.40373989505411	-10.42321220351954	0	59.91595304894474	1.045730655174421	-5.134809059830628	0	0	0.001498472938479765	0.0008111320490187471	0.000188822061092781	-0.241261762653314	-0.0559437253590497	-0.006643453266675668	0.4957023253230454	45.15000594550823	0	0	0	-10.91495158761777	0	75.23239387246346	45.15000594550823	0	0
0.18	0.005433530221019639	0.001414328281928473	2.434982021065466	0	0.9399999999999999	0	42.52004787183686	-10.37091549151827	0	59.91896528011423	1.04578322852616	-5.114971623551005	0	0	42.52004787183686	-10.37091549151827	0	59.91896528011423	1.04578322852616	-5.114971623551005	0	0	-0.009471604264982015	-0.002583216133346165	-0.001251208420194981	-0.2340061773980329	-0.05383241901235204	-0.005930236592357863	0.4887079644587946	45.13434627264747	0	0	0	-11.01333834926671	0	75.22199958536855	45.13434627264747	0	0
0.19	0.00012041437085816	-0.0004629034656442118	2.434020584887743	0	0.9399999999999999	0	42.69171700493183	-10.29750592456235	0	59.92343921711534	1.045861313457356	-5.087474253973086	0	0	42.69171700493183	-10.29750592456235	0	59.92343921711534	1.045861313457356	-5.087474253973086	0	0	-5.520571779547702e-05	0.001021913019227855	-0.0003729641168690645	-0.2373729028934594	-0.05593230850606631	-0.00553972175078478	0.487623953080339	45.11211452601661	0	0	0	-11.16065290798851	0	75.20665676362401	45.11211452601661	0	0
0.2	-0.0008083811187152402	0.01793501549307002	2.42202804538864	0	0.9399999999999999	0	42.84818783881571	-10.23994273449185	0	59.92758004683739	1.04593358456977	-5.067034275020394	0	0	42.84818783881571	-10.23994273449185	0	59.92758004683739	1.04593358456977	-5.067034275020394	0	0	-0.008888890329693509	-0.005293292650410918	0.00276318852422156	-0.2239244659668257	-0.07430711622904611	0.008911886397192944	0.4823343551504359	45.09396809948721	0	0	0	-11.29963841336208	0	75.19266990445824	45.09396809948721	0	0
0.21	0.001262489652275614	-0.0008388583138943259	2.43398307613568	0	0.9399999999999999	0	42.93807930464085	-10.21155972045803	0	59.92999563095702	1.045975744466016	-5.057499068533925	0	0	42.93807930464085	-10.21155972045803	0	59.92999563095702	1.045975744466016	-5.057499068533925	0	0	-0.001862537901116678	0.0009846508687759428	-0.0002800601219867603	-0.2366519434617758	-0.05557771247160156	-0.005187739454532283	0.4876794053049511	45.0846441805487	0	0	0	-11.38227871798663	0	75.18463333083099	45.0846441805487	0	0
